<svg width="48" height="49" viewBox="0 0 48 49" fill="none" xmlns="http://www.w3.org/2000/svg">
<rect x="0.5" y="0.594727" width="47" height="47" rx="23.5" stroke="#432961" stroke-opacity="0.3"/>
<path d="M27.807 19.0947L28.5141 19.8018L29.2212 19.0947L28.5141 18.3876L27.807 19.0947ZM27.0999 19.8018L27.807 20.5089L27.0999 19.8018ZM26.3927 17.6805L27.0999 16.9734L26.3927 16.2663L25.6856 16.9734L26.3927 17.6805ZM25.6856 18.3876L26.3927 19.0947L26.3927 19.0947L25.6856 18.3876ZM21.3927 22.6805L20.6856 23.3876L21.3927 24.0947L22.0999 23.3876L21.3927 22.6805ZM21 22.2878L21.7071 21.5807L21 20.8736L20.2929 21.5807L21 22.2878ZM19.5858 23.702L18.8787 22.9949L18.1716 23.702L18.8787 24.4091L19.5858 23.702ZM19.9785 24.0947L20.6856 24.8018L21.3927 24.0947L20.6856 23.3876L19.9785 24.0947ZM19.5858 24.4874L18.8787 23.7803L18.1716 24.4874L18.8787 25.1946L19.5858 24.4874ZM21 25.9017L20.2929 26.6088L21 27.3159L21.7071 26.6088L21 25.9017ZM21.3927 25.5089L22.0999 24.8018L21.3927 24.0947L20.6856 24.8018L21.3927 25.5089ZM25.6856 29.8018L26.3927 29.0947L25.6856 29.8018ZM26.3927 30.5089L25.6856 31.216L26.3927 31.9232L27.0999 31.216L26.3927 30.5089ZM27.807 29.0947L28.5141 29.8018L29.2212 29.0947L28.5141 28.3876L27.807 29.0947ZM27.0999 28.3876L26.3927 29.0947L27.0999 28.3876ZM22.807 24.0947L22.0999 23.3876L21.3927 24.0947L22.0999 24.8018L22.807 24.0947ZM27.0999 18.3876L26.3927 19.0947L27.807 20.5089L28.5141 19.8018L27.0999 18.3876ZM25.6856 18.3876L27.0999 19.8018L28.5141 18.3876L27.0999 16.9734L25.6856 18.3876ZM26.3927 19.0947L27.0999 18.3876L25.6856 16.9734L24.9785 17.6805L26.3927 19.0947ZM22.0999 23.3876L26.3927 19.0947L24.9785 17.6805L20.6856 21.9734L22.0999 23.3876ZM22.0999 21.9734L21.7071 21.5807L20.2929 22.9949L20.6856 23.3876L22.0999 21.9734ZM20.2929 21.5807L18.8787 22.9949L20.2929 24.4091L21.7071 22.9949L20.2929 21.5807ZM18.8787 24.4091L19.2714 24.8018L20.6856 23.3876L20.2929 22.9949L18.8787 24.4091ZM20.2929 25.1945L20.6856 24.8018L19.2714 23.3876L18.8787 23.7803L20.2929 25.1945ZM21.7071 25.1945L20.2929 23.7803L18.8787 25.1946L20.2929 26.6088L21.7071 25.1945ZM20.6856 24.8018L20.2929 25.1945L21.7071 26.6088L22.0999 26.216L20.6856 24.8018ZM20.6856 26.216L24.9785 30.5089L26.3927 29.0947L22.0999 24.8018L20.6856 26.216ZM24.9785 30.5089L25.6856 31.216L27.0999 29.8018L26.3927 29.0947L24.9785 30.5089ZM27.0999 31.216L28.5141 29.8018L27.0999 28.3876L25.6856 29.8018L27.0999 31.216ZM28.5141 28.3876L27.807 27.6805L26.3927 29.0947L27.0999 29.8018L28.5141 28.3876ZM27.807 27.6805L23.5141 23.3876L22.0999 24.8018L26.3927 29.0947L27.807 27.6805ZM26.3927 19.0947L22.0999 23.3876L23.5141 24.8018L27.807 20.5089L26.3927 19.0947Z" fill="#432961"/>
</svg>
