<svg width="48" height="49" viewBox="0 0 48 49" fill="none" xmlns="http://www.w3.org/2000/svg">
<rect x="0.5" y="0.594727" width="47" height="47" rx="23.5" stroke="#432961" stroke-opacity="0.3"/>
<path d="M20.5857 19.0947L19.8786 19.8018L19.1715 19.0947L19.8786 18.3876L20.5857 19.0947ZM21.2928 19.8018L20.5857 20.5089L21.2928 19.8018ZM22 17.6805L21.2928 16.9734L22 16.2663L22.7071 16.9734L22 17.6805ZM22.7071 18.3876L22 19.0947L22 19.0947L22.7071 18.3876ZM27 22.6805L27.7071 23.3876L27 24.0947L26.2928 23.3876L27 22.6805ZM27.3927 22.2878L26.6856 21.5807L27.3927 20.8736L28.0998 21.5807L27.3927 22.2878ZM28.8069 23.702L29.514 22.9949L30.2211 23.702L29.514 24.4091L28.8069 23.702ZM28.4142 24.0947L27.7071 24.8018L27 24.0947L27.7071 23.3876L28.4142 24.0947ZM28.8069 24.4874L29.514 23.7803L30.2211 24.4874L29.514 25.1946L28.8069 24.4874ZM27.3927 25.9017L28.0998 26.6088L27.3927 27.3159L26.6856 26.6088L27.3927 25.9017ZM27 25.5089L26.2928 24.8018L27 24.0947L27.7071 24.8018L27 25.5089ZM22.7071 29.8018L22 29.0947L22.7071 29.8018ZM22 30.5089L22.7071 31.216L22 31.9232L21.2928 31.216L22 30.5089ZM20.5857 29.0947L19.8786 29.8018L19.1715 29.0947L19.8786 28.3876L20.5857 29.0947ZM21.2928 28.3876L22 29.0947L21.2928 28.3876ZM25.5857 24.0947L26.2928 23.3876L27 24.0947L26.2928 24.8018L25.5857 24.0947ZM21.2928 18.3876L22 19.0947L20.5857 20.5089L19.8786 19.8018L21.2928 18.3876ZM22.7071 18.3876L21.2928 19.8018L19.8786 18.3876L21.2928 16.9734L22.7071 18.3876ZM22 19.0947L21.2928 18.3876L22.7071 16.9734L23.4142 17.6805L22 19.0947ZM26.2928 23.3876L22 19.0947L23.4142 17.6805L27.7071 21.9734L26.2928 23.3876ZM26.2928 21.9734L26.6856 21.5807L28.0998 22.9949L27.7071 23.3876L26.2928 21.9734ZM28.0998 21.5807L29.514 22.9949L28.0998 24.4091L26.6856 22.9949L28.0998 21.5807ZM29.514 24.4091L29.1213 24.8018L27.7071 23.3876L28.0998 22.9949L29.514 24.4091ZM28.0998 25.1945L27.7071 24.8018L29.1213 23.3876L29.514 23.7803L28.0998 25.1945ZM26.6856 25.1945L28.0998 23.7803L29.514 25.1946L28.0998 26.6088L26.6856 25.1945ZM27.7071 24.8018L28.0998 25.1945L26.6856 26.6088L26.2928 26.216L27.7071 24.8018ZM27.7071 26.216L23.4142 30.5089L22 29.0947L26.2928 24.8018L27.7071 26.216ZM23.4142 30.5089L22.7071 31.216L21.2928 29.8018L22 29.0947L23.4142 30.5089ZM21.2928 31.216L19.8786 29.8018L21.2928 28.3876L22.7071 29.8018L21.2928 31.216ZM19.8786 28.3876L20.5857 27.6805L22 29.0947L21.2928 29.8018L19.8786 28.3876ZM20.5857 27.6805L24.8786 23.3876L26.2928 24.8018L22 29.0947L20.5857 27.6805ZM22 19.0947L26.2928 23.3876L24.8786 24.8018L20.5857 20.5089L22 19.0947Z" fill="#432961"/>
</svg>
