<svg width="61" height="61" viewBox="0 0 61 61" fill="none" xmlns="http://www.w3.org/2000/svg">
<path fill-rule="evenodd" clip-rule="evenodd" d="M19.0957 34.3081H7.8457C5.77383 34.3081 4.0957 35.9862 4.0957 38.0581V53.0581C4.0957 55.13 5.77383 56.8081 7.8457 56.8081H19.0957C21.1676 56.8081 22.8457 55.13 22.8457 53.0581V38.0581C22.8457 35.9862 21.1676 34.3081 19.0957 34.3081ZM47.2207 41.8081H56.5957V24.9331C56.5957 21.8262 54.0776 19.3081 50.9707 19.3081H32.2207C30.7282 19.3081 29.2976 19.9006 28.2438 20.9562C27.1882 22.01 26.5957 23.4406 26.5957 24.9331V51.1831C26.5957 52.6756 27.1882 54.1062 28.2438 55.16C29.2976 56.2156 30.7282 56.8081 32.2207 56.8081H41.5957V47.4331C41.5957 44.3262 44.1138 41.8081 47.2207 41.8081ZM55.4295 45.5581H47.2207C46.1857 45.5581 45.3457 46.3981 45.3457 47.4331V55.6419C45.5388 55.4956 45.7207 55.3344 45.8951 55.16L54.9476 46.1075C55.122 45.9331 55.2832 45.7512 55.4295 45.5581ZM11.5957 43.6831V47.4331C11.5957 48.4681 12.4357 49.3081 13.4707 49.3081C14.5057 49.3081 15.3457 48.4681 15.3457 47.4331V43.6831C15.3457 42.6481 14.5057 41.8081 13.4707 41.8081C12.4357 41.8081 11.5957 42.6481 11.5957 43.6831ZM35.9707 38.0581H43.4707C44.5057 38.0581 45.3457 37.2181 45.3457 36.1831C45.3457 35.1481 44.5057 34.3081 43.4707 34.3081H35.9707C34.9357 34.3081 34.0957 35.1481 34.0957 36.1831C34.0957 37.2181 34.9357 38.0581 35.9707 38.0581ZM35.9707 30.5581H47.2207C48.2557 30.5581 49.0957 29.7181 49.0957 28.6831C49.0957 27.6481 48.2557 26.8081 47.2207 26.8081H35.9707C34.9357 26.8081 34.0957 27.6481 34.0957 28.6831C34.0957 29.7181 34.9357 30.5581 35.9707 30.5581ZM20.6801 30.2075L12.5032 21.2187C10.5513 19.0719 10.5513 15.7944 12.5032 13.6475L20.6801 4.65873C20.1888 4.42998 19.6488 4.30811 19.0957 4.30811H7.8457C6.85195 4.30811 5.89758 4.70373 5.19445 5.40685C4.49133 6.10998 4.0957 7.06436 4.0957 8.05811V26.8081C4.0957 27.8019 4.49133 28.7562 5.19445 29.4594C5.89758 30.1625 6.85195 30.5581 7.8457 30.5581H19.0957C19.6488 30.5581 20.1888 30.4362 20.6801 30.2075ZM22.8401 7.85748L15.2782 16.1712C14.6276 16.8875 14.6276 17.9787 15.2782 18.695L22.8401 27.0087C22.8438 26.9412 22.8457 26.8756 22.8457 26.8081C22.8457 22.5706 22.8457 12.2956 22.8457 8.05811C22.8457 7.99061 22.8438 7.92311 22.8401 7.85748ZM47.2207 4.30811H34.4988C33.9663 4.30811 33.4413 4.4206 32.9557 4.63998L28.8045 6.51498C27.4601 7.12248 26.5976 8.45936 26.5976 9.93311C26.5976 11.4069 27.4601 12.7437 28.8045 13.3512L32.9557 15.2262C33.4413 15.4456 33.9663 15.5581 34.4988 15.5581H47.2207V4.30811ZM50.9707 4.30811V15.5581H52.8457C54.9176 15.5581 56.5957 13.88 56.5957 11.8081V8.05811C56.5957 5.98623 54.9176 4.30811 52.8457 4.30811H50.9707Z" fill="white"/>
</svg>
