<svg width="61" height="61" viewBox="0 0 61 61" fill="none" xmlns="http://www.w3.org/2000/svg">
<g clip-path="url(#clip0_122_10069)">
<path d="M37.4941 4.1935H5.61914C2.70105 4.1935 0.345703 6.54885 0.345703 9.46693V30.5607C0.345703 33.4785 2.70105 35.8341 5.61914 35.8341H7.37695V41.1076C7.37695 42.3775 8.69191 43.2972 9.97852 42.6544C10.0137 42.6193 10.0841 42.6193 10.1193 42.584C19.7891 36.0994 17.622 37.5453 19.7872 36.1153C20.0684 35.9395 20.3848 35.8341 20.7363 35.8341H37.4941C40.4122 35.8341 42.7676 33.4785 42.7676 30.5607V9.46693C42.7676 6.54885 40.4122 4.1935 37.4941 4.1935ZM23.4316 25.2872H9.13477C6.81762 25.2872 6.80813 21.7716 9.13477 21.7716H23.4316C25.7488 21.7716 25.7583 25.2872 23.4316 25.2872ZM33.9785 18.256H9.13477C6.81762 18.256 6.80813 14.7404 9.13477 14.7404H33.9785C36.2957 14.7404 36.3052 18.256 33.9785 18.256Z" fill="white"/>
<path d="M55.0723 18.256H46.2832V30.5607C46.2832 35.4122 42.3457 39.3497 37.4941 39.3497H21.2637L17.9238 41.5646V44.6232C17.9238 47.541 20.2792 49.8966 23.1973 49.8966H40.4823L50.5721 56.6465C51.9493 57.4112 53.3145 56.4813 53.3145 55.1701V49.8966H55.0723C57.9904 49.8966 60.3457 47.541 60.3457 44.6232V23.5294C60.3457 20.6115 57.9904 18.256 55.0723 18.256Z" fill="white"/>
</g>
<defs>
<clipPath id="clip0_122_10069">
<rect width="60" height="60" fill="white" transform="translate(0.345703 0.558105)"/>
</clipPath>
</defs>
</svg>
