<svg width="48" height="49" viewBox="0 0 48 49" fill="none" xmlns="http://www.w3.org/2000/svg">
<g id="Group 427319506">
<circle id="Oval" cx="24" cy="24.2263" r="23.5" stroke="white"/>
<path id="instagram" fill-rule="evenodd" clip-rule="evenodd" d="M24 16.2263C21.8267 16.2263 21.556 16.2357 20.7013 16.2757C17.7947 16.409 16.1813 18.021 16.048 20.9277C16.0093 21.7823 16 22.0543 16 24.2263C16 26.3997 16.0093 26.6717 16.048 27.525C16.1813 30.4303 17.7947 32.045 20.7013 32.1783C21.556 32.217 21.8267 32.2263 24 32.2263C26.1733 32.2263 26.4453 32.217 27.3 32.1783C30.2013 32.045 31.8213 30.433 31.952 27.525C31.9907 26.6717 32 26.3997 32 24.2263C32 22.0543 31.9907 21.7823 31.952 20.9277C31.8213 18.025 30.2067 16.4077 27.3 16.2757C26.4453 16.2357 26.1733 16.2263 24 16.2263ZM24 17.669C26.136 17.669 26.3893 17.677 27.2333 17.7156C29.4027 17.8143 30.4133 18.8423 30.5133 20.9943C30.5507 21.8383 30.5587 22.0903 30.5587 24.2263C30.5587 26.3623 30.5507 26.6156 30.5133 27.4583C30.4133 29.609 29.404 30.6396 27.2333 30.7383C26.3893 30.7756 26.1373 30.785 24 30.785C21.864 30.785 21.6107 30.777 20.768 30.7383C18.5947 30.6383 17.588 29.6063 17.488 27.4583C17.4507 26.6156 17.4413 26.3623 17.4413 24.2263C17.4413 22.0903 17.4507 21.837 17.488 20.9943C17.5867 18.841 18.5973 17.813 20.768 17.7143C21.6107 17.6756 21.864 17.669 24 17.669ZM19.892 24.2263C19.892 21.957 21.732 20.1183 24 20.1183C26.268 20.1183 28.108 21.9583 28.108 24.2263C28.108 26.4956 26.268 28.3343 24 28.3343C21.732 28.3343 19.892 26.4956 19.892 24.2263ZM24 26.893C22.5267 26.893 21.3333 25.6997 21.3333 24.2263C21.3333 22.7543 22.5267 21.5597 24 21.5597C25.472 21.5597 26.668 22.753 26.668 24.2263C26.668 25.6997 25.472 26.893 24 26.893ZM27.3093 19.957C27.3093 19.4263 27.74 18.997 28.2693 18.997C28.8013 18.997 29.2307 19.4263 29.2307 19.957C29.2307 20.4876 28.8 20.917 28.2693 20.917C27.7387 20.917 27.3093 20.4863 27.3093 19.957Z" fill="white"/>
</g>
</svg>
