<svg width="50" height="50" viewBox="0 0 50 50" fill="none" xmlns="http://www.w3.org/2000/svg">
<g clip-path="url(#clip0_159_608)">
<path d="M25.4734 12.5962C23.8581 12.5962 22.2792 13.0752 20.9362 13.9725C19.5932 14.8699 18.5464 16.1453 17.9283 17.6376C17.3102 19.1299 17.1485 20.7719 17.4636 22.3561C17.7787 23.9403 18.5565 25.3954 19.6986 26.5376C20.8408 27.6797 22.2959 28.4575 23.8801 28.7726C25.4643 29.0877 27.1063 28.926 28.5986 28.3079C30.0909 27.6898 31.3663 26.643 32.2637 25.3C33.161 23.957 33.64 22.3781 33.64 20.7629C33.64 18.5969 32.7796 16.5197 31.2481 14.9882C29.7165 13.4566 27.6393 12.5962 25.4734 12.5962ZM25.4734 24.8462C24.6657 24.8462 23.8763 24.6067 23.2048 24.158C22.5333 23.7093 22.0099 23.0716 21.7008 22.3255C21.3918 21.5793 21.3109 20.7583 21.4685 19.9662C21.626 19.1741 22.0149 18.4466 22.586 17.8755C23.1571 17.3044 23.8846 16.9155 24.6767 16.758C25.4688 16.6004 26.2898 16.6813 27.036 16.9903C27.7821 17.2994 28.4198 17.8228 28.8685 18.4943C29.3172 19.1658 29.5567 19.9553 29.5567 20.7629C29.5567 21.8458 29.1265 22.8844 28.3607 23.6502C27.5949 24.416 26.5563 24.8462 25.4734 24.8462Z" fill="white"/>
<path d="M25.473 49.3469C23.7538 49.3557 22.0575 48.9524 20.5262 48.171C18.9948 47.3895 17.673 46.2525 16.6714 44.8552C8.89057 34.1222 4.94403 26.0535 4.94403 20.8717C4.94403 15.4271 7.1069 10.2055 10.9568 6.35557C14.8068 2.50564 20.0284 0.342773 25.473 0.342773C30.9176 0.342773 36.1392 2.50564 39.9892 6.35557C43.8391 10.2055 46.002 15.4271 46.002 20.8717C46.002 26.0535 42.0554 34.1222 34.2746 44.8552C33.273 46.2525 31.9512 47.3895 30.4198 48.171C28.8885 48.9524 27.1922 49.3557 25.473 49.3469ZM25.473 4.79973C21.2108 4.8046 17.1247 6.49988 14.1109 9.51368C11.0971 12.5275 9.40177 16.6137 9.39691 20.8758C9.39691 24.9796 13.2618 32.5684 20.2769 42.2439C20.8725 43.0642 21.6538 43.7318 22.5569 44.1922C23.46 44.6526 24.4593 44.8926 25.473 44.8926C26.4867 44.8926 27.486 44.6526 28.3891 44.1922C29.2922 43.7318 30.0735 43.0642 30.669 42.2439C37.6842 32.5684 41.5491 24.9796 41.5491 20.8758C41.5442 16.6137 39.8489 12.5275 36.8351 9.51368C33.8213 6.49988 29.7351 4.8046 25.473 4.79973Z" fill="white"/>
</g>
<defs>
<clipPath id="clip0_159_608">
<rect width="49" height="49" fill="white" transform="translate(0.973145 0.346191)"/>
</clipPath>
</defs>
</svg>
