<svg width="20" height="21" viewBox="0 0 20 21" fill="none" xmlns="http://www.w3.org/2000/svg">
<g clip-path="url(#clip0_159_662)">
<path d="M15.6888 1.50464H4.13879C3.04518 1.50598 1.99673 1.95088 1.22343 2.74176C0.450122 3.53264 0.0151039 4.60492 0.0137939 5.72339L0.0137939 15.8484C0.0151039 16.9669 0.450122 18.0391 1.22343 18.83C1.99673 19.6209 3.04518 20.0658 4.13879 20.0671H15.6888C16.7824 20.0658 17.8309 19.6209 18.6042 18.83C19.3775 18.0391 19.8125 16.9669 19.8138 15.8484V5.72339C19.8125 4.60492 19.3775 3.53264 18.6042 2.74176C17.8309 1.95088 16.7824 1.50598 15.6888 1.50464ZM4.13879 3.19214H15.6888C16.1828 3.19313 16.6652 3.34529 17.0739 3.62904C17.4827 3.91278 17.799 4.31512 17.9823 4.7843L11.6644 11.2466C11.1995 11.7202 10.57 11.9861 9.91379 11.9861C9.25758 11.9861 8.62809 11.7202 8.16314 11.2466L1.84529 4.7843C2.02857 4.31512 2.34492 3.91278 2.75366 3.62904C3.16239 3.34529 3.6448 3.19313 4.13879 3.19214ZM15.6888 18.3796H4.13879C3.48238 18.3796 2.85286 18.113 2.3887 17.6383C1.92455 17.1636 1.66379 16.5197 1.66379 15.8484V6.98901L6.99659 12.4396C7.77096 13.2296 8.82006 13.6732 9.91379 13.6732C11.0075 13.6732 12.0566 13.2296 12.831 12.4396L18.1638 6.98901V15.8484C18.1638 16.5197 17.903 17.1636 17.4389 17.6383C16.9747 18.113 16.3452 18.3796 15.6888 18.3796Z" fill="#432961"/>
</g>
<defs>
<clipPath id="clip0_159_662">
<rect width="19.8" height="20.25" fill="white" transform="translate(0.0137939 0.661133)"/>
</clipPath>
</defs>
</svg>
