<svg width="61" height="61" viewBox="0 0 61 61" fill="none" xmlns="http://www.w3.org/2000/svg">
<path fill-rule="evenodd" clip-rule="evenodd" d="M24.0392 46.0399L29.7329 51.7335C30.4175 52.4181 30.4175 53.5348 29.7329 54.2194L27.3838 56.5684C26.6992 57.2531 25.5825 57.2531 24.8979 56.5684L17.8681 49.5386L23.2752 46.4167C23.5293 46.2892 23.784 46.1636 24.0392 46.0399ZM58.2027 24.4648C58.9402 24.7046 59.3437 25.4969 59.1039 26.2343C58.864 26.9718 58.0718 27.3753 57.3344 27.1355L52.2207 25.474C51.4832 25.2343 51.0797 24.442 51.3195 23.7045C51.5593 22.967 52.3516 22.5636 53.089 22.8034L58.2027 24.4648ZM52.4115 16.9428C51.7388 17.3311 50.8788 17.1006 50.4905 16.428C50.1022 15.7554 50.3327 14.8953 51.0052 14.507L55.6241 11.8402C56.2968 11.4518 57.1568 11.6824 57.5451 12.3549C57.9334 13.0276 57.7029 13.8876 57.0304 14.2759L52.4115 16.9428ZM44.6395 5.14716C44.8005 4.38861 45.546 3.90427 46.3047 4.06529C47.0633 4.2263 47.5476 4.97185 47.3866 5.73052L46.2685 10.9899C46.1075 11.7484 45.3619 12.2328 44.6034 12.0718C43.8448 11.9108 43.3605 11.1652 43.5215 10.4067L44.6395 5.14716ZM29.9405 6.75978C28.5972 7.53533 28.1325 9.26923 28.9082 10.6126L44.3234 37.3125C45.0991 38.656 46.8329 39.1204 48.1763 38.3449C49.5196 37.5693 49.9841 35.8354 49.2086 34.4921L43.9643 25.4089L44.6498 25.0131C47.0389 23.6337 47.865 20.5505 46.4857 18.1613C45.1063 15.7722 42.023 14.946 39.6339 16.3253L38.9485 16.7211L33.7933 7.79197C33.0177 6.44888 31.284 5.98423 29.9405 6.75978ZM3.75872 42.8299L4.98719 44.9577C7.07583 48.5753 11.7445 49.8263 15.3622 47.7377L20.727 44.6403L10.675 27.2297L5.31016 30.3271C1.69258 32.4158 0.441608 37.0844 2.53024 40.702L3.75872 42.8299ZM13.0526 25.7472C18.8726 21.7499 23.3531 17.3036 26.8287 12.6359L41.4424 37.9476C35.6622 38.6236 29.5713 40.2808 23.1995 43.3224L13.0526 25.7472Z" fill="white"/>
</svg>
