<svg width="61" height="61" viewBox="0 0 61 61" fill="none" xmlns="http://www.w3.org/2000/svg">
<g clip-path="url(#clip0_122_10076)">
<path d="M60.1207 57.7831L46.9957 34.0331C46.6457 33.4081 46.0957 33.1081 45.3207 33.0581C44.6207 33.0581 43.9957 33.4581 43.6707 34.0831L41.5457 38.2331L51.4957 55.9331C52.2957 57.3331 52.4207 59.0331 51.8707 60.5581H58.4707C59.1457 60.5581 59.7457 60.2081 60.0957 59.6331C60.4207 59.0581 60.4207 58.3581 60.1207 57.7831Z" fill="white"/>
<path d="M48.2207 57.7581L36.2457 36.4331L31.4707 40.4831C30.4707 41.3331 29.1707 41.8081 27.8457 41.8081C26.4457 41.8081 25.1207 41.3081 24.0957 40.3831C23.0707 41.3081 21.7457 41.8081 20.3457 41.8081C19.0207 41.8081 17.7207 41.3331 16.6957 40.4581L12.1457 36.6081L0.570691 57.7831C0.245691 58.3581 0.270691 59.0581 0.595691 59.6331C0.945691 60.2081 1.57069 60.5581 2.22069 60.5581H46.5957C47.2707 60.5581 47.8707 60.2081 48.2207 59.6331C48.5457 59.0581 48.5457 58.3331 48.2207 57.7581Z" fill="white"/>
<path d="M38.4707 13.0581H24.0957C23.0607 13.0581 22.2207 12.2181 22.2207 11.1831V2.43311C22.2207 1.39811 23.0607 0.558105 24.0957 0.558105H38.4707C39.2032 0.558105 39.8682 0.983105 40.1732 1.65061C40.4807 2.31561 40.3707 3.0981 39.8932 3.6556L37.1907 6.8081L39.8957 9.9631C40.3732 10.5206 40.4807 11.3031 40.1757 11.9681C39.8682 12.6331 39.2032 13.0581 38.4707 13.0581Z" fill="white"/>
<path d="M24.0957 20.5581C23.0607 20.5581 22.2207 19.7181 22.2207 18.6831V2.43311C22.2207 1.39811 23.0607 0.558105 24.0957 0.558105C25.1307 0.558105 25.9707 1.39811 25.9707 2.43311V18.6831C25.9707 19.7181 25.1307 20.5581 24.0957 20.5581Z" fill="white"/>
<path d="M34.3707 33.1081L29.0457 37.6081C28.6957 37.9081 28.2707 38.0581 27.8457 38.0581C27.3707 38.0581 26.8957 37.8831 26.5207 37.5081L24.0957 35.0831L21.6707 37.5081C20.9707 38.2081 19.8707 38.2331 19.1457 37.6081L13.9707 33.2581L15.8207 29.9081L22.4457 17.7831C22.7707 17.1831 23.3957 16.8081 24.0957 16.8081C24.7207 16.7331 25.3957 17.1581 25.7207 17.7581L32.4957 29.7831L34.3707 33.1081Z" fill="white"/>
</g>
<defs>
<clipPath id="clip0_122_10076">
<rect width="60" height="60" fill="white" transform="translate(0.345703 0.558105)"/>
</clipPath>
</defs>
</svg>
