<svg width="48" height="49" viewBox="0 0 48 49" fill="none" xmlns="http://www.w3.org/2000/svg">
<g id="Group 427319507">
<circle id="Oval" cx="24" cy="24.2263" r="23.5" stroke="white"/>
<path id="twitter" d="M32 19.7663C31.412 20.0277 30.7787 20.2037 30.1147 20.2837C30.7933 19.877 31.312 19.2343 31.5587 18.4677C30.924 18.8437 30.2213 19.117 29.4733 19.2637C28.876 18.625 28.0213 18.2263 27.0787 18.2263C24.9587 18.2263 23.4013 20.2037 23.88 22.257C21.1533 22.1197 18.7333 20.813 17.1147 18.8277C16.2547 20.3023 16.6693 22.233 18.1307 23.2103C17.5933 23.193 17.088 23.045 16.6453 22.7997C16.6093 24.3197 17.7 25.7423 19.2787 26.0597C18.8173 26.185 18.3107 26.2143 17.796 26.1157C18.2133 27.4197 19.428 28.3677 20.8627 28.3943C19.48 29.477 17.7427 29.961 16 29.7557C17.4533 30.6877 19.1773 31.2303 21.0307 31.2303C27.1267 31.2303 30.5693 26.0823 30.3613 21.465C31.004 21.0037 31.56 20.425 32 19.7663Z" fill="white"/>
</g>
</svg>
